<?xml version="1.0" ?><svg id="Layer_1" style="enable-background:new 0 0 512 512;" version="1.1" viewBox="0 0 512 512" xml:space="preserve" xmlns="http://www.w3.org/2000/svg" xmlns:xlink="http://www.w3.org/1999/xlink"><g><g><path class="st0" d="M307.7,307.7H204.3V204.3h103.3V307.7z M224.3,287.7h63.3v-63.3h-63.3V287.7z"/></g><g><path class="st0" d="M339.3,224.3h-51.7v-51.7c0-28.5,23.2-51.7,51.7-51.7c28.5,0,51.7,23.2,51.7,51.7    C391,201.2,367.8,224.3,339.3,224.3z M307.7,204.3h31.7c17.5,0,31.7-14.2,31.7-31.7c0-17.5-14.2-31.7-31.7-31.7    s-31.7,14.2-31.7,31.7V204.3z"/></g><g><path class="st0" d="M224.3,224.3h-51.7c-28.5,0-51.7-23.2-51.7-51.7c0-28.5,23.2-51.7,51.7-51.7c28.5,0,51.7,23.2,51.7,51.7    V224.3z M172.7,141c-17.5,0-31.7,14.2-31.7,31.7c0,17.5,14.2,31.7,31.7,31.7h31.7v-31.7C204.3,155.2,190.1,141,172.7,141z"/></g><g><path class="st0" d="M172.7,391c-28.5,0-51.7-23.2-51.7-51.7c0-28.5,23.2-51.7,51.7-51.7h51.7v51.7    C224.3,367.8,201.2,391,172.7,391z M172.7,307.7c-17.5,0-31.7,14.2-31.7,31.7s14.2,31.7,31.7,31.7c17.5,0,31.7-14.2,31.7-31.7    v-31.7H172.7z"/></g><g><path class="st0" d="M339.3,391c-28.5,0-51.7-23.2-51.7-51.7v-51.7h51.7c28.5,0,51.7,23.2,51.7,51.7    C391,367.8,367.8,391,339.3,391z M307.7,307.7v31.7c0,17.5,14.2,31.7,31.7,31.7s31.7-14.2,31.7-31.7s-14.2-31.7-31.7-31.7H307.7z"/></g></g></svg>